<?xml version="1.0" encoding="UTF-8" standalone="no"?>
<!-- Created with Inkscape (http://www.inkscape.org/) -->

<svg
   xmlns:dc="http://purl.org/dc/elements/1.1/"
   xmlns:cc="http://creativecommons.org/ns#"
   xmlns:rdf="http://www.w3.org/1999/02/22-rdf-syntax-ns#"
   xmlns:svg="http://www.w3.org/2000/svg"
   xmlns="http://www.w3.org/2000/svg"
   xmlns:sodipodi="http://sodipodi.sourceforge.net/DTD/sodipodi-0.dtd"
   xmlns:inkscape="http://www.inkscape.org/namespaces/inkscape"
   width="747.63019"
   height="537.61206"
   id="svg2"
   version="1.1"
   inkscape:version="0.48.4 r9939"
   sodipodi:docname="interoperabilidade-flash-scorm-html-windows-grid.svg">
  <defs
     id="defs4" />
  <sodipodi:namedview
     id="base"
     pagecolor="#ffffff"
     bordercolor="#666666"
     borderopacity="1.0"
     inkscape:pageopacity="0.0"
     inkscape:pageshadow="2"
     inkscape:zoom="0.7"
     inkscape:cx="401.87786"
     inkscape:cy="262.65536"
     inkscape:document-units="px"
     inkscape:current-layer="layer1"
     showgrid="false"
     fit-margin-top="2"
     fit-margin-left="2"
     fit-margin-right="2"
     fit-margin-bottom="2"
     inkscape:window-width="1301"
     inkscape:window-height="744"
     inkscape:window-x="65"
     inkscape:window-y="24"
     inkscape:window-maximized="1"
     units="px" />
  <metadata
     id="metadata7">
    <rdf:RDF>
      <cc:Work
         rdf:about="">
        <dc:format>image/svg+xml</dc:format>
        <dc:type
           rdf:resource="http://purl.org/dc/dcmitype/StillImage" />
        <dc:title></dc:title>
      </cc:Work>
    </rdf:RDF>
  </metadata>
  <g
     inkscape:label="Layer 1"
     inkscape:groupmode="layer"
     id="layer1"
     transform="translate(320.34749,311.00244)">
    <g
       id="g4094">
      <rect
         ry="41.836372"
         y="-305.96341"
         x="-316.57584"
         height="527.53394"
         width="740.08685"
         id="rect2985"
         style="fill:#ffffff;fill-opacity:1;stroke:#000000;stroke-width:3.54330707;stroke-linecap:round;stroke-linejoin:round;stroke-miterlimit:4;stroke-opacity:1;stroke-dasharray:none;stroke-dashoffset:0" />
      <path
         inkscape:connector-curvature="0"
         id="path3751"
         d="m 53.467585,-307.23079 0,530.06873"
         style="fill:none;stroke:#000000;stroke-width:3.54330707;stroke-linecap:butt;stroke-linejoin:miter;stroke-miterlimit:4;stroke-opacity:1;stroke-dasharray:none" />
      <path
         inkscape:connector-curvature="0"
         id="path3751-3"
         d="m 422.81365,-42.196425 -738.69213,0"
         style="fill:none;stroke:#000000;stroke-width:3.54330707;stroke-linecap:butt;stroke-linejoin:miter;stroke-miterlimit:4;stroke-opacity:1;stroke-dasharray:none" />
    </g>
    <g
       id="g3961"
       transform="translate(-130.20746,-349.51278)">
      <text
         sodipodi:linespacing="125%"
         id="text3049"
         y="95.7892"
         x="285.39902"
         style="font-size:47.94841385px;font-style:normal;font-variant:normal;font-weight:normal;font-stretch:normal;text-align:center;line-height:125%;letter-spacing:0px;word-spacing:0px;text-anchor:middle;fill:#000000;fill-opacity:1;stroke:none;font-family:FreeSans;-inkscape-font-specification:FreeSans"
         xml:space="preserve"><tspan
           style="font-weight:600;-inkscape-font-specification:FreeSans Semi-Bold"
           y="95.7892"
           x="285.39902"
           id="tspan3051"
           sodipodi:role="line">SCORM</tspan></text>
      <text
         sodipodi:linespacing="125%"
         id="text3053"
         y="109.30484"
         x="284.57867"
         style="font-size:10.33120728px;font-style:normal;font-variant:normal;font-weight:normal;font-stretch:normal;text-align:center;line-height:125%;letter-spacing:0px;word-spacing:0px;text-anchor:middle;fill:#000000;fill-opacity:1;stroke:none;font-family:FreeSans;-inkscape-font-specification:FreeSans"
         xml:space="preserve"><tspan
           y="109.30484"
           x="284.57867"
           id="tspan3055"
           sodipodi:role="line">Sharable Content Object Reference Model</tspan></text>
    </g>
    <text
       xml:space="preserve"
       style="font-size:60.66654968px;font-style:normal;font-variant:normal;font-weight:normal;font-stretch:normal;text-align:center;line-height:125%;letter-spacing:0px;word-spacing:0px;text-anchor:middle;fill:#000000;fill-opacity:1;stroke:none;font-family:FreeSans;-inkscape-font-specification:FreeSans"
       x="-202.57216"
       y="6.6178927"
       id="text3912"
       sodipodi:linespacing="125%"><tspan
         sodipodi:role="line"
         x="-202.57216"
         y="6.6178927"
         style="font-style:normal;font-variant:normal;font-weight:bold;font-stretch:normal;font-family:Courier;-inkscape-font-specification:Courier Bold"
         id="tspan3916">&lt;HTML&gt;</tspan></text>
    <g
       id="g3967"
       transform="translate(-320.08133,-321.40693)">
      <g
         transform="matrix(0.23939149,0,0,0.23939149,2.0678966,25.445139)"
         id="g3016">
        <path
           inkscape:connector-curvature="0"
           id="path3030"
           d="m 191.42856,284.83684 c -33.06913,-5.23607 -58.60365,-17.85517 -80.52733,-39.79642 -19.570242,-19.58594 -31.700842,-42.09583 -37.640587,-69.84696 -2.883845,-13.47364 -3.133511,-38.82993 -0.5116,-51.95831 5.695264,-28.517226 18.939028,-52.977899 39.431997,-72.829244 20.44998,-19.809701 41.63522,-31.275129 68.51385,-37.079629 13.85914,-2.992913 41.93718,-3.246949 54.70973,-0.494988 28.4694,6.13399 50.20408,17.358273 69.69584,35.992514 44.68581,42.719919 55.64316,106.959917 27.6239,161.951557 -8.86843,17.40551 -19.31376,30.5189 -33.9662,42.64219 -20.5535,17.00577 -43.98469,27.42952 -69.69677,31.00574 -7.29864,1.01515 -32.11128,1.28782 -37.63283,0.41355 z m -24.10985,-63.96699 c 9.65455,-3.19385 15.04461,-6.43677 22.87796,-13.76449 10.42752,-9.75442 20.12961,-25.30029 24.71437,-39.60031 0.96985,-3.025 2.15797,-5.92742 2.64027,-6.44983 0.50962,-0.552 8.26722,-0.83146 18.52136,-0.66722 l 17.64444,0.28262 -0.63327,-3.83279 c -0.3483,-2.10803 -0.63822,-7.09528 -0.64427,-11.08278 l -0.011,-7.25 -9.95031,0 c -7.97956,0 -10.1234,-0.3093 -10.82426,-1.56165 -1.36315,-2.43583 0.28894,-11.5465 3.09959,-17.09305 4.54174,-8.96268 17.94101,-19.07771 30.78293,-23.237852 l 3.60795,-1.168796 0.5621,-10.719328 c 0.30916,-5.89563 0.15839,-11.136512 -0.33502,-11.646404 -1.682,-1.738149 -14.23678,1.425007 -23.57023,5.938478 -6.86208,3.318368 -11.10544,6.274706 -17.09819,11.912255 -14.14837,13.309777 -23.02771,28.557487 -31.37236,53.873057 -5.08819,15.43626 -10.36874,27.16068 -15.76606,35.00542 -7.11799,10.34564 -19.4258,20.11913 -28.55492,22.67513 -4.516,1.2644 -4.58122,1.34279 -4.58122,5.50601 0,2.32284 0.29255,7.0223 0.65011,10.44323 l 0.6501,6.21989 5.0999,-0.66842 c 2.80494,-0.36763 8.42546,-1.76856 12.49004,-3.11317 z m 20.96928,-82.3648 c 0,-0.94548 -0.31771,-0.76064 -0.85943,0.5 -0.47269,1.1 -0.85943,2.675 -0.85943,3.5 0,0.94548 0.31771,0.76064 0.85943,-0.5 0.47269,-1.1 0.85943,-2.675 0.85943,-3.5 z"
           style="fill:#ed9b9b" />
        <path
           inkscape:connector-curvature="0"
           id="path3028"
           d="m 195.92856,282.88388 c -21.93893,-3.3662 -33.26259,-6.72668 -48.5,-14.39315 -25.51734,-12.83868 -47.548247,-34.99749 -60.423401,-60.77418 -4.277064,-8.5629 -8.877731,-21.87988 -11.157551,-32.29637 -2.185771,-9.9868 -2.99908,-34.45335 -1.49748,-45.04829 7.840867,-55.323333 46.816032,-98.935467 101.078432,-113.103977 9.94497,-2.59674 13.82391,-3.070985 28.68614,-3.5072 23.85883,-0.70027 37.59357,1.622391 58.31386,9.861364 15.07261,5.993296 35.92893,20.382283 46.55625,32.119634 13.74063,15.175831 25.81295,36.333635 30.96185,54.263339 13.78418,47.99979 1.01826,98.01994 -33.96317,133.07653 -25.37451,25.42901 -57.25742,39.03701 -93.55493,39.93035 -7.425,0.18274 -14.85,0.12511 -16.5,-0.12805 z m -36.23382,-58.80274 c 15.1478,-2.89826 28.69759,-11.478 39.29775,-24.8834 6.59476,-8.34001 14.05427,-22.3367 17.0238,-31.94269 0.97763,-3.1625 2.25783,-5.7965 2.84489,-5.85332 0.58706,-0.0568 8.55375,-0.0171 17.70376,0.0883 9.15001,0.10542 16.8613,-0.18559 17.13619,-0.64668 0.2749,-0.46109 0.21353,-5.78834 -0.13638,-11.83834 l -0.63619,-11 -10,-0.5 -10,-0.5 -0.31111,-4.90472 c -0.2456,-3.87195 0.33989,-6.22709 2.78057,-11.18482 4.89034,-9.93369 14.12853,-16.98225 31.1246,-23.747493 l 3.59406,-1.430605 0.60173,-11.366183 c 0.35494,-6.704555 0.21259,-11.75705 -0.34709,-12.319213 -1.59309,-1.600158 -14.53318,1.203228 -22.46068,4.865961 -23.93221,11.05736 -39.65118,31.695143 -51.4849,67.595623 -10.76066,32.6451 -23.1724,49.23083 -42.23989,56.44491 l -6.25729,2.36741 0.12166,9.53392 c 0.0669,5.24365 0.39028,10.23395 0.71861,11.08956 0.7329,1.9099 1.57897,1.9201 10.92591,0.13174 z m 60.84733,-21.56986 c 13.42627,-2.47706 29.27276,-13.58931 36.63211,-25.68802 l 3.15196,-5.1818 -2.69879,-0.57521 c -3.19942,-0.68192 -25.13151,-2.52271 -30.32686,-2.54537 -3.54471,-0.0155 -3.68038,0.12778 -5.90437,6.23417 -1.25196,3.4375 -4.68183,11.01224 -7.62192,16.83276 -2.9401,5.82051 -5.34564,10.88301 -5.34564,11.25 0,0.97488 5.92526,0.81516 12.11351,-0.32653 z m -46.75543,-27.59614 c 6.0453,-7.70233 10.79602,-17.80674 16.51732,-35.13104 4.54261,-13.75518 11.40972,-28.75472 19.3154,-42.189797 l 3.18387,-5.410742 -6.93733,0.598106 c -10.18673,0.878255 -19.36353,4.11724 -27.96529,9.870443 -18.16124,12.14698 -27.37454,33.78462 -23.44246,55.05516 1.35203,7.31381 5.27008,17.19082 8.4982,21.4231 3.20481,4.20173 4.67243,3.63052 10.83029,-4.21523 z m 90.45122,-35.41009 -1.3093,-8.5 -0.30669,10.5 c -0.16867,5.775 0.0221,12.525 0.42402,15 l 0.7307,4.5 0.88528,-6.5 c 0.61269,-4.49854 0.48213,-9.1173 -0.42401,-15 z m -3.01824,-11.45773 c 0.60205,-0.60204 -5.49518,-11.05182 -7.34359,-12.58587 -1.27267,-1.05622 -1.9989,-0.9352 -4.18577,0.69753 -3.48421,2.60134 -7.88301,8.23957 -8.78015,11.25409 l -0.71663,2.40802 10.30126,-0.67508 c 5.6657,-0.37129 10.4919,-0.8657 10.72488,-1.09869 z"
           style="fill:#e86f6f" />
        <path
           inkscape:connector-curvature="0"
           id="path3026"
           d="m 195.92856,281.81448 c -11.17102,-1.45561 -21.55063,-3.69932 -29.63219,-6.40545 -43.7215,-14.64023 -76.092875,-49.42344 -88.146786,-94.71417 -2.991595,-11.24046 -3.112548,-12.47782 -3.146586,-32.18981 -0.03291,-19.05826 0.155683,-21.25772 2.681563,-31.27394 10.692017,-42.398553 40.081029,-76.628833 79.966549,-93.139492 15.97742,-6.613871 26.965,-8.778397 47.27745,-9.313535 26.95063,-0.710023 44.50946,3.068873 66.5,14.311689 46.49321,23.769979 74.6203,71.727998 72.67557,123.915278 -0.80431,21.58393 -4.69486,36.65168 -14.40009,55.77031 -14.23672,28.04536 -37.47592,49.99657 -65.86813,62.21753 -20.54761,8.84438 -48.67811,13.3272 -67.90735,10.82159 z m -36.23382,-57.73334 c 15.1478,-2.89826 28.69759,-11.478 39.29775,-24.8834 6.59476,-8.34001 14.05427,-22.3367 17.0238,-31.94269 0.97763,-3.1625 2.25783,-5.7965 2.84489,-5.85332 0.58706,-0.0568 8.55375,-0.0171 17.70376,0.0883 9.15001,0.10542 16.8613,-0.18559 17.13619,-0.64668 0.2749,-0.46109 0.21353,-5.78834 -0.13638,-11.83834 l -0.63619,-11 -10,-0.5 -10,-0.5 -0.31111,-4.90472 c -0.2456,-3.87195 0.33989,-6.22709 2.78057,-11.18482 4.89034,-9.93369 14.12853,-16.98225 31.1246,-23.747493 l 3.59406,-1.430605 0.60173,-11.366183 c 0.35494,-6.704555 0.21259,-11.75705 -0.34709,-12.319213 -1.59309,-1.600158 -14.53318,1.203228 -22.46068,4.865961 -23.93221,11.05736 -39.65118,31.695143 -51.4849,67.595623 -10.76066,32.6451 -23.1724,49.23083 -42.23989,56.44491 l -6.25729,2.36741 0.12166,9.53392 c 0.0669,5.24365 0.39028,10.23395 0.71861,11.08956 0.7329,1.9099 1.57897,1.9201 10.92591,0.13174 z m 64.23382,-4.73577 c 10.07274,-2.39899 12.15392,-3.12323 18.8586,-6.56277 7.3246,-3.75756 17.30718,-11.51557 22.44073,-17.43991 14.32268,-16.52902 20.63844,-42.95094 15.27178,-63.8893 -1.19096,-4.64659 -4.01614,-12.21044 -6.27819,-16.80856 l -4.11281,-8.36021 -3.59006,0.48428 c -10.57484,1.42649 -26.09005,14.29372 -26.09005,21.63728 0,0.7209 3.24736,1.09887 9.44098,1.09887 6.46373,0 9.69074,0.39419 10.23297,1.25 0.87173,1.37586 2.23464,35.44467 1.50353,37.58394 -0.36391,1.06484 -4.2656,1.26657 -19.3407,1 l -18.88481,-0.33394 -3.24369,8 c -4.59755,11.33906 -9.83114,20.29528 -16.99981,29.09168 -3.41466,4.18999 -7.07833,8.68859 -8.1415,9.99688 -1.06317,1.30829 -1.64306,2.66868 -1.28865,3.0231 2.18495,2.18494 21.3974,2.33031 30.22168,0.22866 z m -64.39179,-29.93021 c 5.45513,-2.73056 15.86863,-14.65456 20.63126,-23.62386 2.33171,-4.39123 6.52644,-14.9091 9.32164,-23.37304 8.38657,-25.39484 16.79033,-40.64832 30.88244,-56.054075 3.88105,-4.242829 7.05645,-7.899657 7.05645,-8.126284 0,-0.226627 -3.13153,-1.002926 -6.95895,-1.725109 -7.86125,-1.483312 -21.48635,-0.854566 -29.54105,1.363206 -20.14451,5.546567 -38.7378,20.543202 -46.80119,37.748052 -5.5742,11.89366 -7.77641,20.70744 -7.84086,31.381 -0.0869,14.3927 2.63816,24.83183 9.81242,37.58925 4.94033,8.78499 5.277,8.90577 13.43784,4.82086 z"
           style="fill:#e44f4f" />
        <path
           inkscape:connector-curvature="0"
           id="path3024"
           d="M 198.78632,281.35815 C 147.47515,278.3791 99.864747,242.28477 82.136571,192.92383 c -5.354922,-14.90982 -7.204123,-26.46708 -7.187164,-44.91878 0.01664,-18.10807 1.244711,-26.39968 6.123802,-41.34636 12.862945,-39.404565 46.286991,-72.809481 85.607111,-85.558129 13.33177,-4.322518 21.73553,-5.718756 37.88865,-6.294981 12.19851,-0.435154 17.9202,-0.178814 26,1.164838 43.05116,7.159302 79.25268,33.305109 98.62764,71.231796 10.63935,20.826646 14.54727,36.956646 14.60994,60.302836 0.045,16.75256 -1.40034,26.63637 -6.04506,41.33952 -16.09242,50.94154 -64.50434,89.13013 -117.246,92.48671 -5.82281,0.37057 -15.60094,0.38266 -21.72917,0.0269 z m 30.0089,-42.50616 c 28.21016,-5.47307 53.3647,-25.77661 65.8744,-53.17068 5.06627,-11.09424 6.86822,-19.37881 7.46416,-34.31696 0.61401,-15.39106 -0.65831,-23.32812 -5.96878,-37.23482 -2.65323,-6.94812 -13.26882,-24.599408 -15.6966,-26.099859 -0.87564,-0.54118 -1.3648,1.211459 -2.57332,9.220135 -0.74848,4.960054 -0.58804,4.834644 -10.63609,8.313964 -4.26697,1.47751 -10.00064,4.12541 -12.74149,5.88421 -7.56223,4.85267 -14.08894,12.78452 -14.08894,17.12217 0,0.51419 4.24844,0.9349 9.44098,0.9349 6.46373,0 9.69074,0.39419 10.23297,1.25 0.87173,1.37586 2.23464,35.44467 1.50353,37.58394 -0.36394,1.06493 -4.27189,1.2666 -19.37844,1 l -18.92256,-0.33394 -2.80059,7.16654 c -6.31145,16.15056 -16.79698,31.58194 -27.37363,40.28527 -3.41124,2.80705 -10.3627,7.22873 -15.44769,9.82596 -5.08498,2.59723 -9.24748,4.95997 -9.25,5.25053 -0.003,0.29057 4.15793,1.96125 9.24543,3.71264 8.07633,2.78029 12.0963,3.73584 23.75,5.64539 4.17894,0.68476 19.02973,-0.42194 27.36666,-2.03939 z m -69.10048,-14.77085 c 15.1478,-2.89826 28.69759,-11.478 39.29775,-24.8834 6.59476,-8.34001 14.05427,-22.3367 17.0238,-31.94269 0.97763,-3.1625 2.25783,-5.7965 2.84489,-5.85332 0.58706,-0.0568 8.55375,-0.0171 17.70376,0.0883 9.15001,0.10542 16.8613,-0.18559 17.13619,-0.64668 0.2749,-0.46109 0.21353,-5.78834 -0.13638,-11.83834 l -0.63619,-11 -10,-0.5 -10,-0.5 -0.31111,-4.90472 c -0.2456,-3.87195 0.33989,-6.22709 2.78057,-11.18482 4.89034,-9.93369 14.12853,-16.98225 31.1246,-23.747493 l 3.59406,-1.430605 0.60173,-11.366183 c 0.35494,-6.704555 0.21259,-11.75705 -0.34709,-12.319213 -1.59309,-1.600158 -14.53318,1.203228 -22.46068,4.865961 -23.93221,11.05736 -39.65118,31.695143 -51.4849,67.595623 -10.76066,32.6451 -23.1724,49.23083 -42.23989,56.44491 l -6.25729,2.36741 0.12166,9.53392 c 0.0669,5.24365 0.39028,10.23395 0.71861,11.08956 0.7329,1.9099 1.57897,1.9201 10.92591,0.13174 z m -20.27178,-22.32048 0.5056,-5.58893 6.24884,-1.2703 c 8.91627,-1.81255 15.48044,-5.77988 23.10212,-13.96275 8.57382,-9.20512 13.84982,-19.26114 20.21015,-38.52042 12.86774,-38.96396 28.56981,-59.631886 55.68889,-73.300743 2.8875,-1.455389 5.25,-3.017037 5.25,-3.470327 0,-1.062617 -11.7597,-5.696549 -19.5,-7.684013 -8.74164,-2.244577 -24.6909,-2.949273 -34.57436,-1.52762 -22.81174,3.281278 -44.18105,14.99112 -58.34313,31.970563 -23.93044,28.6911 -28.81053,67.86236 -12.51584,100.46151 4.03565,8.07372 12.04618,19.82487 12.92773,18.96449 0.27191,-0.26539 0.72191,-2.99755 1,-6.07146 z"
           style="fill:#a35759" />
        <path
           inkscape:connector-curvature="0"
           id="path3022"
           d="M 197.92856,280.8737 C 165.91427,277.39263 138.4173,264.89075 116.30029,243.76029 97.914095,226.19422 86.022747,205.63775 79.134588,179.51227 c -2.830066,-10.73391 -3.039737,-12.75047 -3.11999,-30.00722 -0.07417,-15.94879 0.236837,-19.94798 2.255264,-29 5.730221,-25.698277 17.724842,-47.623435 36.127228,-66.037544 25.52733,-25.543589 58.23573,-38.964789 94.95089,-38.961093 36.95341,0.0037 69.38735,13.374373 95.2995,39.28652 17.93709,17.937086 30.13377,40.617472 35.91902,66.793337 2.73418,12.37101 3.22239,36.48581 0.99037,48.91878 -7.49803,41.76613 -34.87711,78.22363 -72.44627,96.46815 -13.32448,6.47071 -19.85198,8.71346 -33.38997,11.47233 -9.91324,2.02019 -29.79571,3.29765 -37.79207,2.42817 z m 30.86666,-42.02171 c 33.16563,-6.43449 61.56104,-33.22221 70.85878,-66.84694 2.88236,-10.42391 3.54608,-31.93457 1.29723,-42.0427 -3.17655,-14.27799 -7.30196,-23.64075 -15.60125,-35.407549 -5.57116,-7.898838 -6.65513,-7.985632 -6.86588,-0.549755 -0.15414,5.43868 -2.0919,7.673234 -7.94373,9.160404 -13.25639,3.36895 -25.94864,12.20621 -30.04406,20.91886 -3.11053,6.61735 -2.09157,7.42074 9.41193,7.42074 l 9.23478,0 0.71891,17.59053 c 0.3954,9.67479 0.42043,17.88729 0.0556,18.25 -0.36481,0.36271 -8.99243,0.65947 -19.17249,0.65947 l -18.5092,0 -2.26451,6 c -5.9399,15.73827 -16.88124,32.38836 -26.83851,40.84174 -5.79483,4.91961 -19.73418,14.21559 -22.75308,15.17375 -1.07315,0.34061 -1.95119,0.9392 -1.95119,1.3302 0,0.391 4.1625,2.14386 9.25,3.89525 8.07633,2.78029 12.0963,3.73584 23.75,5.64539 4.17894,0.68476 19.02973,-0.42194 27.36666,-2.03939 z m -65.97614,-14.31894 c 15.44982,-3.9514 30.00581,-14.31677 40.23468,-28.65125 4.72434,-6.62057 12.38634,-22.09609 14.48567,-29.25781 l 1.28424,-4.38105 17.30858,0.47612 c 13.73611,0.37786 17.5392,0.19826 18.42589,-0.87015 0.79508,-0.95801 0.86541,-4.73463 0.24387,-13.09507 l -0.87345,-11.74879 -10,-0.5 -10,-0.5 -0.30986,-3.74156 c -0.47505,-5.73618 4.03865,-14.73894 10.41142,-20.76605 4.73437,-4.47757 13.10901,-9.18374 24.49311,-13.76403 2.4176,-0.972696 2.63899,-1.613272 3.24401,-9.386153 1.50767,-19.369614 1.36157,-19.623936 -9.93317,-17.290942 -14.58929,3.013501 -27.36162,10.358749 -38.4484,22.111314 -12.57932,13.334751 -20.65981,28.024691 -28.32922,51.501151 -5.30361,16.23465 -8.15765,22.71885 -13.88861,31.55412 -8.12422,12.52491 -16.79205,19.86495 -28.01883,23.72676 l -6.22045,2.13972 -0.28434,9.55242 c -0.15638,5.25383 0.16998,10.74736 0.72525,12.20784 1.26592,3.32962 4.53725,3.47432 15.44961,0.68341 z m -23.39052,-22.028 c 0.0426,-4.87317 0.80007,-5.62286 6.5,-6.43357 14.11892,-2.00818 27.48686,-13.74813 36.94308,-32.44404 1.49597,-2.95769 4.96589,-12.18269 7.71093,-20.5 2.74505,-8.31731 6.75848,-18.89742 8.91874,-23.51135 8.47699,-18.10531 22.45259,-35.134496 35.99787,-43.863171 3.53616,-2.278724 6.94393,-4.589651 7.57282,-5.135393 0.6289,-0.545742 1.4164,-0.719308 1.75,-0.385702 0.33361,0.333605 0.60656,0.153787 0.60656,-0.399596 0,-0.553384 1.125,-1.518736 2.5,-2.145228 1.375,-0.626492 2.5,-1.527179 2.5,-2.001526 0,-1.094636 -11.63889,-5.703812 -19.5,-7.722297 -3.3,-0.847336 -10.53346,-1.810378 -16.07436,-2.140094 -49.62412,-2.952931 -92.4247,32.852418 -98.43945,82.350737 -2.62178,21.57584 4.01891,46.32675 17.2622,64.33903 4.50777,6.13104 5.69791,6.12943 5.75161,-0.008 z"
           style="fill:#da1919" />
        <path
           inkscape:connector-curvature="0"
           id="path3020"
           d="M 197.92856,280.8737 C 165.91427,277.39263 138.4173,264.89075 116.30029,243.76029 97.914095,226.19422 86.022747,205.63775 79.134588,179.51227 c -2.830066,-10.73391 -3.039737,-12.75047 -3.11999,-30.00722 -0.07417,-15.94879 0.236837,-19.94798 2.255264,-29 5.730221,-25.698277 17.724842,-47.623435 36.127228,-66.037544 25.52733,-25.543589 58.23573,-38.964789 94.95089,-38.961093 36.95341,0.0037 69.38735,13.374373 95.2995,39.28652 17.93709,17.937086 30.13377,40.617472 35.91902,66.793337 2.73418,12.37101 3.22239,36.48581 0.99037,48.91878 -7.49803,41.76613 -34.87711,78.22363 -72.44627,96.46815 -13.32448,6.47071 -19.85198,8.71346 -33.38997,11.47233 -9.91324,2.02019 -29.79571,3.29765 -37.79207,2.42817 z m 31.11901,-14.8833 c 25.35517,-4.32431 47.38161,-15.59576 65.23617,-33.38291 14.50657,-14.45181 24.96967,-32.07857 30.63075,-51.60244 8.11405,-27.98365 5.10744,-60.66148 -7.95263,-86.434299 C 308.8722,78.606577 291.70781,59.068833 277.4564,49.602788 256.44378,35.645823 234.87776,29.136416 209.42856,29.069519 193.76871,29.028359 184.87462,30.426612 170.7369,35.152307 128.56419,49.24902 96.7077,86.999591 90.384169,130.37189 c -1.926045,13.2105 -0.76593,35.34569 2.496476,47.63316 12.600485,47.45827 52.461095,82.49143 101.047915,88.81018 7.71976,1.00396 27.05936,0.54974 35.11901,-0.82483 z m -87.36901,-33.60606 c -0.90188,-0.92301 -1.25,-6.0652 -1.25,-18.46407 l 0,-17.18477 5.30641,-0.663 c 14.04125,-1.75433 27.60912,-13.60813 37.13667,-32.44506 1.49597,-2.95769 4.96589,-12.18269 7.71093,-20.5 5.46703,-16.56475 10.49049,-28.01444 16.30928,-37.17283 16.42194,-25.847053 36.87595,-39.39054 64.64778,-42.806117 7.93579,-0.975999 7.97809,-0.854505 6.73882,19.356553 -0.59017,9.625 -1.47277,17.927454 -1.96134,18.449884 -0.48857,0.52244 -3.20055,1.54163 -6.02662,2.26487 -13.03847,3.33679 -25.73433,12.22755 -29.79418,20.86451 -3.11053,6.61735 -2.09157,7.42074 9.41193,7.42074 l 9.23478,0 0.71891,17.59053 c 0.3954,9.67479 0.42043,17.88729 0.0556,18.25 -0.36481,0.36271 -8.99243,0.65947 -19.17249,0.65947 l -18.5092,0 -2.37053,6.28366 c -10.92233,28.95227 -32.37375,50.64316 -55.93675,56.56123 -9.11272,2.28874 -20.73011,3.0899 -22.25,1.5344 z m 21.14052,-7.85129 c 15.44982,-3.9514 30.00581,-14.31677 40.23468,-28.65125 4.72434,-6.62057 12.38634,-22.09609 14.48567,-29.25781 l 1.28424,-4.38105 17.30858,0.47612 c 13.73611,0.37786 17.5392,0.19826 18.42589,-0.87015 0.79508,-0.95801 0.86541,-4.73463 0.24387,-13.09507 l -0.87345,-11.74879 -10,-0.5 -10,-0.5 -0.30986,-3.74156 c -0.47505,-5.73618 4.03865,-14.73894 10.41142,-20.76605 4.73437,-4.47757 13.10901,-9.18374 24.49311,-13.76403 2.4176,-0.972696 2.63899,-1.613272 3.24401,-9.386153 1.50767,-19.369614 1.36157,-19.623936 -9.93317,-17.290942 -14.58929,3.013501 -27.36162,10.358749 -38.4484,22.111314 -12.57932,13.334751 -20.65981,28.024691 -28.32922,51.501151 -5.30361,16.23465 -8.15765,22.71885 -13.88861,31.55412 -8.12422,12.52491 -16.79205,19.86495 -28.01883,23.72676 l -6.22045,2.13972 -0.28434,9.55242 c -0.15638,5.25383 0.16998,10.74736 0.72525,12.20784 1.26592,3.32962 4.53725,3.47432 15.44961,0.68341 z"
           style="fill:#9d0707" />
        <path
           inkscape:connector-curvature="0"
           id="path3018"
           d="M 186.18698,278.45186 C 159.78472,273.80219 136.67172,262.15478 117.33869,243.7569 98.399747,225.73403 86.717526,205.84493 79.649192,179.59014 c -2.385017,-8.85896 -2.584682,-11.21384 -2.63563,-31.08509 -0.05239,-20.43247 0.08315,-22.02135 2.729786,-32 6.593593,-24.859949 17.772146,-44.329632 35.599332,-62.003364 19.32629,-19.159919 42.55627,-31.345354 69.81598,-36.622413 11.95018,-2.313371 36.62291,-2.306773 48.60917,0.013 53.44126,10.342801 94.72474,50.590247 106.27992,103.612777 2.59414,11.9036 2.62007,40.98417 0.0471,52.76818 -3.93434,18.01861 -11.67979,35.90337 -21.75416,50.23182 -11.7817,16.75674 -33.4648,34.85565 -51.97522,43.38378 -24.85243,11.45004 -53.62066,15.24008 -80.17844,10.56303 z m 50.61458,-5.44065 c 43.30913,-9.00998 80.10295,-41.74629 94.41992,-84.00758 9.8476,-29.06847 8.8658,-59.92619 -2.84194,-89.320674 -15.66148,-39.321083 -53.91639,-69.90626 -96.55346,-77.19543 -42.00089,-7.180409 -83.06821,5.646236 -113.15939,35.343319 -59.180565,58.405485 -47.36506,156.624775 23.99088,199.430105 18.51588,11.10739 37.03791,16.95388 57.27099,18.07762 13.77255,0.76493 25.5963,0.0186 36.873,-2.32736 z m -93.99633,-42.27234 c -1.01139,-1.01139 -1.42642,-4.93977 -1.56417,-14.80525 -0.10313,-7.38571 -0.21563,-14.62661 -0.25,-16.09088 -0.058,-2.46865 0.38202,-2.75298 6.04875,-3.90889 8.13738,-1.65988 13.61716,-4.58832 20.18909,-10.78923 10.45574,-9.86546 16.08491,-19.99327 23.35367,-42.01718 6.04511,-18.3163 10.99676,-29.12033 18.54676,-40.46729 6.72276,-10.103688 18.74528,-22.298271 26.62861,-27.009717 11.25947,-6.729186 25.53852,-11.092032 36.42062,-11.128023 l 5.25,-0.01736 -0.007,11.75 c -0.004,6.4625 -0.29273,14.774123 -0.64183,18.470272 l -0.63472,6.720268 -5.60817,1.61516 c -14.11354,4.0647 -25.96877,12.36149 -30.04042,21.02356 -3.11053,6.61735 -2.09157,7.42074 9.41193,7.42074 l 9.23478,0 0.71891,17.59053 c 0.3954,9.67479 0.42043,17.88729 0.0556,18.25 -0.36481,0.36271 -8.99243,0.65947 -19.17249,0.65947 l -18.5092,0 -2.26451,6 c -8.70957,23.07676 -23.94364,41.84028 -40.76841,50.21368 -12.13628,6.04002 -33.11904,9.79879 -36.3977,6.52014 z m 20.01385,-6.20582 c 15.44982,-3.9514 30.00581,-14.31677 40.23468,-28.65125 4.72434,-6.62057 12.38634,-22.09609 14.48567,-29.25781 l 1.28424,-4.38105 17.30858,0.47612 c 13.73611,0.37786 17.5392,0.19826 18.42589,-0.87015 0.79508,-0.95801 0.86541,-4.73463 0.24387,-13.09507 l -0.87345,-11.74879 -10,-0.5 -10,-0.5 -0.30986,-3.74156 c -0.47505,-5.73618 4.03865,-14.73894 10.41142,-20.76605 4.73437,-4.47757 13.10901,-9.18374 24.49311,-13.76403 2.4176,-0.972696 2.63899,-1.613272 3.24401,-9.386153 1.50767,-19.369614 1.36157,-19.623936 -9.93317,-17.290942 -14.58929,3.013501 -27.36162,10.358749 -38.4484,22.111314 -12.57932,13.334751 -20.65981,28.024691 -28.32922,51.501151 -5.30361,16.23465 -8.15765,22.71885 -13.88861,31.55412 -8.12422,12.52491 -16.79205,19.86495 -28.01883,23.72676 l -6.22045,2.13972 -0.28434,9.55242 c -0.15638,5.25383 0.16998,10.74736 0.72525,12.20784 1.26592,3.32962 4.53725,3.47432 15.44961,0.68341 z"
           style="fill:#660c0e" />
      </g>
      <text
         sodipodi:linespacing="125%"
         id="text3949"
         y="115.18687"
         x="51.930328"
         style="font-size:28px;font-style:normal;font-variant:normal;font-weight:normal;font-stretch:normal;text-align:center;line-height:125%;letter-spacing:0px;word-spacing:0px;text-anchor:middle;fill:#000000;fill-opacity:1;stroke:none;font-family:FreeSans;-inkscape-font-specification:FreeSans"
         xml:space="preserve"><tspan
           y="115.18687"
           x="51.930328"
           id="tspan3951"
           sodipodi:role="line">Flash</tspan></text>
    </g>
    <g
       id="g3979"
       transform="translate(-544.17277,-73.610598)">
      <g
         transform="matrix(0.14290025,0,0,0.14290025,708.72849,2.196419)"
         id="g3902">
        <path
           inkscape:connector-curvature="0"
           style="fill:#000000;stroke:#000000"
           d="m -278.32478,615.79033 c -23.40729,-2.59698 -39.00202,-8.43531 -61.86872,-23.16236 -3.27675,-2.11036 -5.95773,-4.05115 -5.95773,-4.31288 0,-0.52468 39.54327,-137.27749 39.82837,-137.73881 0.32839,-0.53133 0.88917,-0.29493 3.54212,1.49326 19.56946,13.19053 36.66442,20.4979 55.43615,23.69662 12.23978,2.08566 27.68876,1.88139 42.76227,-0.56543 14.58587,-2.36766 34.53176,-8.18708 50.13705,-14.62802 2.90792,-1.20022 4.07619,-1.38952 4.07076,-0.65962 -0.004,0.25206 -8.96551,31.39265 -19.91916,69.20131 l -19.91573,68.74302 -3.82011,1.58597 c -14.69745,6.10185 -32.30609,11.41277 -46.49839,14.02431 -9.92686,1.82665 -14.54465,2.25066 -25.69811,2.35948 -5.94856,0.058 -11.39301,0.0415 -12.09877,-0.0368 z"
           id="path3132" />
        <path
           inkscape:connector-curvature="0"
           style="fill:#ffff00;fill-opacity:1;stroke:#000000"
           d="m -253.39398,614.35655 c 13.43022,-1.4997 26.67519,-4.54714 42.16239,-9.70082 6.28817,-2.09251 19.66308,-7.09113 20.07436,-7.50241 0.16737,-0.16738 39.62703,-136.39699 39.53688,-136.4962 -0.0404,-0.0445 -1.30198,0.42258 -2.80347,1.03792 -4.18074,1.71338 -12.79135,4.81933 -18.49499,6.67136 -14.33084,4.65338 -26.88213,7.46623 -40.69587,9.12029 -6.24226,0.74744 -24.86682,0.63068 -30.43025,-0.19079 -20.61216,-3.04349 -36.35424,-9.39873 -57.92518,-23.385 l -3.66403,-2.3757 -19.70041,68.0283 c -10.83522,37.41556 -19.70409,68.15759 -19.7086,68.31562 -0.005,0.15802 2.09534,1.6621 4.66633,3.34238 15.1781,9.91976 28.48925,16.30003 41.4213,19.85398 7.53809,2.0716 13.3963,3.03129 24.29703,3.98042 3.2074,0.27926 16.38061,-0.15395 21.26451,-0.69935 z"
           id="path3130" />
        <path
           inkscape:connector-curvature="0"
           style="fill:#000000;stroke:#000000"
           d="m -372.1613,573.97544 c -23.93238,-15.85383 -43.02754,-22.88004 -66.22674,-24.36868 -21.76691,-1.39672 -48.18086,3.8042 -77.27194,15.21489 -3.39643,1.33221 -6.24239,2.42221 -6.32436,2.42221 -0.082,0 -0.14903,-0.46567 -0.14903,-1.03483 0,-1.43431 39.12523,-137.9763 39.68962,-138.51165 0.63935,-0.60643 14.71208,-5.92883 21.5375,-8.14562 15.77868,-5.12466 29.37243,-8.11201 42.89565,-9.4267 6.2788,-0.61041 18.61951,-0.68528 24.56417,-0.14902 20.68332,1.86579 39.27088,8.96034 61.68541,23.54424 3.30746,2.15198 5.04115,3.50068 5.04115,3.92167 0,0.44678 -37.4967,129.86649 -40.18335,138.69268 -0.10742,0.35288 -0.39041,0.63678 -0.62888,0.63088 -0.23847,-0.006 -2.32161,-1.26143 -4.6292,-2.79007 z"
           id="path3128" />
        <path
           inkscape:connector-curvature="0"
           style="fill:#0001ff;fill-opacity:1;stroke:#000000"
           d="m -347.75563,506.73132 c 10.95306,-37.59674 19.91942,-68.56025 19.92526,-68.8078 0.012,-0.50907 -5.64069,-4.38214 -12.02389,-8.23844 -33.45533,-20.21143 -64.18752,-24.11183 -106.12224,-13.46857 -7.06595,1.79338 -23.24366,7.13366 -30.67457,10.12572 l -5.29589,2.13238 -19.60106,68.47136 c -10.78059,37.65924 -19.51701,68.55541 -19.41427,68.65814 0.10273,0.10274 1.32487,-0.29539 2.71586,-0.88473 7.67714,-3.25268 22.46386,-8.15688 32.22606,-10.68817 16.28675,-4.22307 28.45735,-5.71439 43.89269,-5.37837 12.01437,0.26154 19.18308,1.31473 29.60055,4.34874 12.15576,3.54028 26.38585,10.45192 39.79526,19.3288 2.41976,1.60185 4.54852,2.87785 4.73058,2.83555 0.18206,-0.0423 9.2926,-30.83787 20.24566,-68.43461 z"
           id="path3126" />
        <path
           inkscape:connector-curvature="0"
           style="fill:#000000;stroke:none"
           d="m -229.36227,455.02014 c -15.66321,-1.05668 -30.32819,-5.1763 -46.21279,-12.98189 -8.50785,-4.18071 -24.01423,-13.58828 -24.01423,-14.56921 0,-0.33571 36.99485,-128.8791 39.09449,-135.83887 0.50187,-1.66358 1.09611,-3.02469 1.32053,-3.02469 0.22442,0 2.41129,1.31218 4.85971,2.91596 20.32016,13.31022 36.75243,20.00108 56.46495,22.99127 6.30946,0.95709 25.68459,0.96443 32.81333,0.0124 18.42493,-2.46052 35.75704,-7.18802 56.19334,-15.3273 4.40732,-1.75534 5.18164,-1.82195 4.86352,-0.4184 -0.12568,0.55453 -9.0934,31.69512 -19.92829,69.20131 l -19.69977,68.19308 -2.19025,1.05374 c -1.20467,0.57956 -4.74752,2.08743 -7.87303,3.35081 -27.81755,11.24434 -52.70379,15.99258 -75.69151,14.44176 z"
           id="path3124" />
        <path
           inkscape:connector-curvature="0"
           style="fill:#00ff00;fill-opacity:1;stroke:#000000"
           d="m -204.91832,453.43513 c 13.76524,-1.72553 29.40597,-5.65826 43.26951,-10.87976 6.63072,-2.49736 16.4268,-6.52111 16.89997,-6.94166 0.29184,-0.25943 39.7899,-136.44365 39.63782,-136.66626 -0.0402,-0.0588 -1.78475,0.57926 -3.87682,1.41798 -17.27921,6.92735 -36.44542,12.3498 -50.97558,14.42187 -9.75417,1.39099 -11.06588,1.48149 -21.57118,1.48832 -8.5524,0.006 -11.77454,-0.1323 -15.39844,-0.65879 -15.5923,-2.2653 -26.66151,-5.81346 -40.89606,-13.10895 -4.88507,-2.5037 -13.24411,-7.4504 -18.07674,-10.69744 -1.48234,-0.99598 -2.82609,-1.67084 -2.98609,-1.49969 -0.2293,0.24526 -38.52735,132.57399 -39.40324,136.1474 -0.20734,0.8459 0.14783,1.15342 4.60585,3.9879 18.81599,11.96354 33.39419,18.29244 49.82771,21.63194 3.26933,0.66437 10.5953,1.69876 14.29855,2.01887 3.83686,0.33168 20.23176,-0.10854 24.64474,-0.66173 z"
           id="path3122" />
        <path
           inkscape:connector-curvature="0"
           style="fill:#000000;stroke:#000000"
           d="m -325.18552,409.57393 c -21.47983,-13.9752 -37.225,-20.59803 -55.89707,-23.51176 -7.1205,-1.11113 -24.18199,-1.20902 -31.7952,-0.18242 -16.76722,2.26097 -34.80503,7.30129 -56.11948,15.68152 -3.54265,1.39286 -6.57422,2.53248 -6.73681,2.53248 -0.1626,0 -0.20358,-0.4537 -0.0911,-1.00823 0.28278,-1.39366 39.01477,-135.62883 39.58082,-137.17695 0.43493,-1.18955 0.74496,-1.36106 6.50384,-3.59809 18.73866,-7.27903 36.85927,-12.21131 53.04715,-14.43899 6.96563,-0.95857 22.92238,-1.34937 29.69895,-0.72737 21.56379,1.97927 40.72724,9.35937 63.0502,24.28146 2.05131,1.37122 3.8124,2.62704 3.91355,2.7907 0.10115,0.16366 -2.01294,7.88148 -4.69798,17.15072 -2.68504,9.26923 -11.58974,40.0333 -19.78824,68.36459 -8.19849,28.33129 -14.99187,51.80016 -15.0964,52.15304 -0.10454,0.35288 -0.38517,0.63829 -0.62364,0.63424 -0.23847,-0.004 -2.46535,-1.32927 -4.94862,-2.94494 z"
           id="path3120" />
        <path
           inkscape:connector-curvature="0"
           style="fill:#ff0000;fill-opacity:1;stroke:#000000"
           d="m -316.30845,396.736 c 2.30423,-7.95118 11.07138,-38.21429 19.48256,-67.25134 8.41118,-29.03705 15.42345,-53.23977 15.58282,-53.78381 0.27938,-0.95373 0.0905,-1.11968 -5.27027,-4.63035 -21.04696,-13.78328 -38.35098,-20.47814 -59.08795,-22.86089 -5.94654,-0.68328 -20.78961,-0.56325 -27.49721,0.22236 -16.9524,1.98549 -36.69292,7.18118 -55.77084,14.67881 l -6.27587,2.46643 -6.10372,21.13816 c -27.1821,94.13591 -33.44709,115.91187 -33.34808,115.91187 0.0624,0 2.13721,-0.80723 4.61068,-1.79385 21.32308,-8.50532 40.37786,-13.77405 58.02511,-16.0442 7.04951,-0.90684 22.26355,-0.90833 28.78041,-0.003 19.93033,2.76933 37.12148,9.75744 58.11077,23.6217 2.41976,1.59834 4.43838,2.87875 4.48582,2.84535 0.0475,-0.0334 1.97154,-6.56624 4.27577,-14.51743 z"
           id="path3116" />
      </g>
      <text
         sodipodi:linespacing="125%"
         id="text3953"
         y="115.32972"
         x="664.21606"
         style="font-size:28px;font-style:normal;font-variant:normal;font-weight:normal;font-stretch:normal;text-align:center;line-height:125%;letter-spacing:0px;word-spacing:0px;text-anchor:middle;fill:#000000;fill-opacity:1;stroke:none;font-family:FreeSans;-inkscape-font-specification:FreeSans"
         xml:space="preserve"><tspan
           y="115.32972"
           x="664.21606"
           id="tspan3955"
           sodipodi:role="line">Windows</tspan></text>
    </g>
    <text
       xml:space="preserve"
       style="font-size:28px;font-style:normal;font-variant:normal;font-weight:600;font-stretch:normal;text-align:center;line-height:125%;letter-spacing:0px;word-spacing:0px;text-anchor:middle;fill:#000000;fill-opacity:1;stroke:none;font-family:FreeSans;-inkscape-font-specification:FreeSans Semi-Bold"
       x="52.846558"
       y="-313.13672"
       id="text4180"
       sodipodi:linespacing="125%"><tspan
         sodipodi:role="line"
         id="tspan4182"
         x="52.846558"
         y="-313.13672"
         style="font-size:24px">Relatório técnico sobre a Interoperabilidade dos recursos</tspan></text>
  </g>
</svg>
