<?xml version="1.0" encoding="UTF-8" standalone="no"?>
<!-- Created with Inkscape (http://www.inkscape.org/) -->

<svg
   xmlns:dc="http://purl.org/dc/elements/1.1/"
   xmlns:cc="http://creativecommons.org/ns#"
   xmlns:rdf="http://www.w3.org/1999/02/22-rdf-syntax-ns#"
   xmlns:svg="http://www.w3.org/2000/svg"
   xmlns="http://www.w3.org/2000/svg"
   xmlns:sodipodi="http://sodipodi.sourceforge.net/DTD/sodipodi-0.dtd"
   xmlns:inkscape="http://www.inkscape.org/namespaces/inkscape"
   width="742.14288"
   height="48.285713"
   id="svg2"
   version="1.1"
   inkscape:version="0.48.4 r9939"
   sodipodi:docname="pagina-com-atividade.svg">
  <defs
     id="defs4" />
  <sodipodi:namedview
     id="base"
     pagecolor="#ffffff"
     bordercolor="#666666"
     borderopacity="1.0"
     inkscape:pageopacity="0.0"
     inkscape:pageshadow="2"
     inkscape:zoom="1.979899"
     inkscape:cx="601.34882"
     inkscape:cy="-26.916102"
     inkscape:document-units="px"
     inkscape:current-layer="layer1"
     showgrid="false"
     fit-margin-top="0"
     fit-margin-left="0"
     fit-margin-right="0"
     fit-margin-bottom="0"
     units="mm"
     inkscape:window-width="1301"
     inkscape:window-height="744"
     inkscape:window-x="363"
     inkscape:window-y="1104"
     inkscape:window-maximized="1" />
  <metadata
     id="metadata7">
    <rdf:RDF>
      <cc:Work
         rdf:about="">
        <dc:format>image/svg+xml</dc:format>
        <dc:type
           rdf:resource="http://purl.org/dc/dcmitype/StillImage" />
        <dc:title></dc:title>
      </cc:Work>
    </rdf:RDF>
  </metadata>
  <g
     inkscape:label="Layer 1"
     inkscape:groupmode="layer"
     id="layer1"
     transform="translate(-0.71428573,0.42353292)">
    <rect
       style="fill:#ffffff;fill-opacity:1;stroke:none"
       id="rect3021"
       width="742.14288"
       height="42.857143"
       x="0.71428573"
       y="2.2907526"
       ry="5.9216847" />
    <path
       inkscape:connector-curvature="0"
       d="m 725.97264,28.616482 h -7.60685 c -2.02056,0 -3.80342,1.901721 -3.80342,3.803442 h 15.21379 c 0,-2.020581 -1.90171,-3.803442 -3.80351,-3.803442 z m -3.2685,-24.7223596 c -9.92463,0 -12.4206,1.90172 -13.84691,3.328009 -1.4263,-1.426289 -3.92236,-3.328009 -13.8469,-3.328009 -9.92463,0 -14.67895,2.733725 -14.67895,4.635446 V 43.354808 c 1.72343,-0.950856 7.07202,-2.852577 12.71781,-3.32801 6.83431,-0.534858 13.90633,0.534858 13.90633,1.901721 0,0.950866 0.47541,1.842296 1.8423,1.901722 0,0 0,0 0.0594,0 0,0 0,0 0.0594,0 1.36689,-0.05943 1.8423,-0.950856 1.8423,-1.901722 0,-1.366863 7.072,-2.436579 13.90632,-1.901721 5.58629,0.416007 10.9943,2.377154 12.71773,3.32801 V 8.5295684 c 0,-1.901721 -4.75432,-4.635446 -14.67886,-4.635446 z M 706.95552,37.887366 c -1.78286,-0.950857 -6.1212,-1.664009 -11.41036,-1.664009 -5.28914,0 -10.10289,0.713152 -11.41026,1.604583 0,0 0,-24.425215 0,-26.326936 0,-1.9017196 3.80341,-3.5062946 11.41026,-3.5062946 7.60685,0 11.41036,1.604575 11.41036,3.5062946 0,1.901721 0,26.386362 0,26.386362 z m 26.62406,-0.05943 c -1.30746,-0.891431 -6.1212,-1.604583 -11.41036,-1.604583 -5.28916,0 -9.62741,0.713152 -11.41026,1.664009 0,0 0,-24.484641 0,-26.386362 0,-1.9017196 3.80341,-3.5062946 11.41026,-3.5062946 7.60694,0 11.41036,1.604575 11.41036,3.5062946 0,1.901721 0,26.326936 0,26.326936 z m -7.60694,-16.818341 h -7.60685 c -2.02056,0 -3.80342,1.901721 -3.80342,3.803442 h 15.21379 c 0,-2.020573 -1.90171,-3.803442 -3.80351,-3.803442 z m 0,-7.606874 h -7.60685 c -2.02056,0 -3.80342,1.90172 -3.80342,3.803441 h 15.21379 c 0,-2.020581 -1.90171,-3.803441 -3.80351,-3.803441 z m -26.62405,7.606874 h -7.60685 c -1.90171,0 -3.80343,1.782869 -3.80343,3.803442 h 15.2137 c 0,-1.901721 -1.78286,-3.803442 -3.80342,-3.803442 z m 0,7.606883 h -7.60685 c -1.90171,0 -3.80343,1.782861 -3.80343,3.803442 h 15.2137 c 0,-1.901721 -1.78286,-3.803442 -3.80342,-3.803442 z m 0,-15.213757 h -7.60685 c -1.90171,0 -3.80343,1.78286 -3.80343,3.803441 h 15.2137 c 0,-1.901721 -1.78286,-3.803441 -3.80342,-3.803441 z"
       id="path4" />
  </g>
</svg>
